<svg version="1.1" viewBox="0 0 512 512" xmlns="http://www.w3.org/2000/svg">
 <g transform="matrix(2.8219 0 0 2.8249 -355.4 -389.85)" style="shape-inside:url(#rect9578);white-space:pre">
  <path d="m307.38 319.25v-181.25h-88.896v57.984h72v123.26zm-20.544 0v-37.248h-51.456v-3.648h51.456v-37.44h-30.912v-3.648h30.912v-17.088h-30.912v-3.648h30.912v-16.896h-68.352v16.896h20.544v3.648h-20.544v37.632h16.896v-20.544h3.648v20.544h30.912v3.648h-51.456v37.44h51.456v3.456h-51.456v16.896zm-144 0v-123.26h72v-57.984h-88.896v181.25zm72 0v-16.896h-51.456v-3.456h51.456v-37.44h-51.456v-3.648h30.912v-20.544h3.648v20.544h16.896v-37.632h-20.544v-3.648h20.544v-16.896h-68.352v16.896h30.72v3.648h-30.72v17.088h30.72v3.648h-30.72v37.44h51.456v3.648h-51.456v37.248zm75.648-160.7h-55.104v-3.648h55.104zm0 20.544h-55.104v-3.648h55.104zm-92.544-20.544h-55.104v-3.648h55.104zm0 20.544h-55.104v-3.648h55.104z"/>
 </g>
</svg>
